<svg xmlns="http://www.w3.org/2000/svg" width="1900" height="1870" viewBox="0 0 1900 1870"><rect x="0" y="0" width="1900" height="1844" fill="#ffffff"/><text x="48" y="59" font-family="Montserrat" font-size="11" font-weight="700" fill="#ff9800" letter-spacing="0.88" xml:space="preserve">RCA PAYMENT GATEWAY · THE TWO OPEN QUESTIONS</text><text x="48" y="99" font-family="Montserrat" font-size="30" font-weight="800" fill="#03084c" letter-spacing="-0.3" xml:space="preserve">Both answers are a config change, not a redesign.</text><text x="48" y="133" font-family="Montserrat" font-size="15" font-weight="400" fill="#4a4a4a" xml:space="preserve">Nik has been asked whether the online payment is the full fee or a deposit, and whether prices go public. The </text><text x="48" y="157" font-family="Montserrat" font-size="15" font-weight="400" fill="#4a4a4a" xml:space="preserve">layout was built so neither answer costs a rework — here is what each looks like.</text><text x="48" y="207" font-family="Montserrat" font-size="11" font-weight="700" fill="#ff9800" letter-spacing="0.88" xml:space="preserve">QUESTION 1 — FULL FEE OR DEPOSIT</text><rect x="48" y="224" width="392" height="1" fill="#e3e7ec"/><rect x="48" y="985" width="392" height="1" fill="#e3e7ec"/><rect x="48" y="224" width="1" height="762" fill="#e3e7ec"/><rect x="439" y="224" width="1" height="762" fill="#e3e7ec"/><rect x="49" y="225" width="390" height="760" fill="#f8fafb"/><rect x="49" y="225" width="390" height="760" fill="#f8fafb"/><rect x="49" y="225" width="390" height="56" fill="#03084c"/><g transform="translate(65 243) scale(0.833) translate(0 0)"><path d="m15 18-6-6 6-6"></path></g><text x="95" y="258.5" font-family="Montserrat" font-size="15" font-weight="700" fill="#ffffff" xml:space="preserve">Book your seat</text><text x="65" y="310" font-family="Montserrat" font-size="11.5" font-weight="700" fill="#8a94a1" letter-spacing="0.46" xml:space="preserve">FULL NAME</text><rect x="65" y="319" width="358" height="50" rx="8" fill="#ffffff"/><rect x="65" y="319" width="358" height="1" fill="#e3e7ec"/><rect x="65" y="368" width="358" height="1" fill="#e3e7ec"/><rect x="65" y="319" width="1" height="50" fill="#e3e7ec"/><rect x="422" y="319" width="1" height="50" fill="#e3e7ec"/><text x="80" y="349.5" font-family="Montserrat" font-size="15" font-weight="600" fill="#333333" xml:space="preserve">Priya R</text><text x="65" y="396" font-family="Montserrat" font-size="11.5" font-weight="700" fill="#8a94a1" letter-spacing="0.46" xml:space="preserve">MOBILE</text><rect x="65" y="405" width="358" height="50" rx="8" fill="#ffffff"/><rect x="65" y="405" width="358" height="1" fill="#e3e7ec"/><rect x="65" y="454" width="358" height="1" fill="#e3e7ec"/><rect x="65" y="405" width="1" height="50" fill="#e3e7ec"/><rect x="422" y="405" width="1" height="50" fill="#e3e7ec"/><text x="80" y="435.5" font-family="Montserrat" font-size="15" font-weight="600" fill="#333333" xml:space="preserve">+91 98450 12345</text><text x="65" y="482" font-family="Montserrat" font-size="11.5" font-weight="700" fill="#8a94a1" letter-spacing="0.46" xml:space="preserve">EMAIL</text><rect x="65" y="491" width="358" height="50" rx="8" fill="#ffffff"/><rect x="65" y="491" width="358" height="1" fill="#e3e7ec"/><rect x="65" y="540" width="358" height="1" fill="#e3e7ec"/><rect x="65" y="491" width="1" height="50" fill="#e3e7ec"/><rect x="422" y="491" width="1" height="50" fill="#e3e7ec"/><text x="80" y="521.5" font-family="Montserrat" font-size="15" font-weight="600" fill="#333333" xml:space="preserve">priya.r@gmail.com</text><text x="65" y="568" font-family="Montserrat" font-size="11.5" font-weight="700" fill="#8a94a1" letter-spacing="0.46" xml:space="preserve">REFERRAL CODE</text><rect x="65" y="577" width="358" height="59" rx="8" fill="#f1f9f4"/><rect x="65" y="577" width="358" height="1" fill="#1a7f4b"/><rect x="65" y="635" width="358" height="1" fill="#1a7f4b"/><rect x="65" y="577" width="1" height="59" fill="#1a7f4b"/><rect x="422" y="577" width="1" height="59" fill="#1a7f4b"/><g transform="translate(80 597.5) scale(0.75) translate(0 0)"><path d="M20 12.5 12.5 20 3 10.5V3h7.5z"></path><circle cx="7.5" cy="7.5" r="1.2"></circle></g><text x="108" y="604" font-family="Montserrat" font-size="14" font-weight="700" fill="#1a7f4b" xml:space="preserve">KULLI applied</text><text x="108" y="620" font-family="Montserrat" font-size="11.5" font-weight="400" fill="#4a4a4a" xml:space="preserve">Referral code recognised</text><g transform="translate(391 598) scale(0.708) translate(0 0)"><path d="M20 6 9 17l-5-5"></path></g><rect x="65" y="652" width="358" height="61" rx="12" fill="#ffffff"/><rect x="65" y="652" width="358" height="1" fill="#e3e7ec"/><rect x="65" y="712" width="358" height="1" fill="#e3e7ec"/><rect x="65" y="652" width="1" height="61" fill="#e3e7ec"/><rect x="422" y="652" width="1" height="61" fill="#e3e7ec"/><text x="82" y="690" font-family="Montserrat" font-size="14" font-weight="400" fill="#4a4a4a" xml:space="preserve">Course fee</text><text x="312.516" y="690" font-family="Montserrat" font-size="22" font-weight="800" fill="#03084c" xml:space="preserve">₹35,000</text><rect x="49" y="876" width="390" height="109" fill="#ffffff"/><rect x="49" y="876" width="390" height="1" fill="#e3e7ec"/><rect x="65" y="893" width="358" height="52" rx="8" fill="#ff9800"/><g transform="translate(147.484 910) scale(0.75) translate(0 0)"><rect x="4" y="11" width="16" height="10" rx="2"></rect><path d="M8 11V7a4 4 0 0 1 8 0v4"></path></g><text x="174.484" y="924.5" font-family="Montserrat" font-size="15" font-weight="700" fill="#ffffff" xml:space="preserve">Pay ₹35,000 securely</text><g transform="translate(103.234 955.5) scale(0.542) translate(0 0)"><rect x="4" y="11" width="16" height="10" rx="2"></rect><path d="M8 11V7a4 4 0 0 1 8 0v4"></path></g><text x="122.234" y="966" font-family="Montserrat" font-size="11.5" font-weight="400" fill="#8a94a1" xml:space="preserve">Secured by Razorpay · UPI, cards, net banking</text><text x="48" y="1011" font-family="Montserrat" font-size="11" font-weight="700" fill="#ff9800" letter-spacing="0.88" xml:space="preserve">FULL ₹35,000 ONLINE</text><text x="48" y="1034" font-family="Montserrat" font-size="13" font-weight="400" fill="#4a4a4a" xml:space="preserve">Everything the student pays is online, so 100% of the fee is </text><text x="48" y="1054" font-family="Montserrat" font-size="13" font-weight="400" fill="#4a4a4a" xml:space="preserve">inside the rev-share base. Highest friction on a cold page — </text><text x="48" y="1074" font-family="Montserrat" font-size="13" font-weight="400" fill="#4a4a4a" xml:space="preserve">but they arrive here after a counselling call, not cold.</text><rect x="476" y="224" width="392" height="1" fill="#e3e7ec"/><rect x="476" y="985" width="392" height="1" fill="#e3e7ec"/><rect x="476" y="224" width="1" height="762" fill="#e3e7ec"/><rect x="867" y="224" width="1" height="762" fill="#e3e7ec"/><rect x="477" y="225" width="390" height="760" fill="#f8fafb"/><rect x="477" y="225" width="390" height="760" fill="#f8fafb"/><rect x="477" y="225" width="390" height="56" fill="#03084c"/><g transform="translate(493 243) scale(0.833) translate(0 0)"><path d="m15 18-6-6 6-6"></path></g><text x="523" y="258.5" font-family="Montserrat" font-size="15" font-weight="700" fill="#ffffff" xml:space="preserve">Book your seat</text><text x="493" y="310" font-family="Montserrat" font-size="11.5" font-weight="700" fill="#8a94a1" letter-spacing="0.46" xml:space="preserve">FULL NAME</text><rect x="493" y="319" width="358" height="50" rx="8" fill="#ffffff"/><rect x="493" y="319" width="358" height="1" fill="#e3e7ec"/><rect x="493" y="368" width="358" height="1" fill="#e3e7ec"/><rect x="493" y="319" width="1" height="50" fill="#e3e7ec"/><rect x="850" y="319" width="1" height="50" fill="#e3e7ec"/><text x="508" y="349.5" font-family="Montserrat" font-size="15" font-weight="600" fill="#333333" xml:space="preserve">Priya R</text><text x="493" y="396" font-family="Montserrat" font-size="11.5" font-weight="700" fill="#8a94a1" letter-spacing="0.46" xml:space="preserve">MOBILE</text><rect x="493" y="405" width="358" height="50" rx="8" fill="#ffffff"/><rect x="493" y="405" width="358" height="1" fill="#e3e7ec"/><rect x="493" y="454" width="358" height="1" fill="#e3e7ec"/><rect x="493" y="405" width="1" height="50" fill="#e3e7ec"/><rect x="850" y="405" width="1" height="50" fill="#e3e7ec"/><text x="508" y="435.5" font-family="Montserrat" font-size="15" font-weight="600" fill="#333333" xml:space="preserve">+91 98450 12345</text><text x="493" y="482" font-family="Montserrat" font-size="11.5" font-weight="700" fill="#8a94a1" letter-spacing="0.46" xml:space="preserve">EMAIL</text><rect x="493" y="491" width="358" height="50" rx="8" fill="#ffffff"/><rect x="493" y="491" width="358" height="1" fill="#e3e7ec"/><rect x="493" y="540" width="358" height="1" fill="#e3e7ec"/><rect x="493" y="491" width="1" height="50" fill="#e3e7ec"/><rect x="850" y="491" width="1" height="50" fill="#e3e7ec"/><text x="508" y="521.5" font-family="Montserrat" font-size="15" font-weight="600" fill="#333333" xml:space="preserve">priya.r@gmail.com</text><text x="493" y="568" font-family="Montserrat" font-size="11.5" font-weight="700" fill="#8a94a1" letter-spacing="0.46" xml:space="preserve">REFERRAL CODE</text><rect x="493" y="577" width="358" height="59" rx="8" fill="#f1f9f4"/><rect x="493" y="577" width="358" height="1" fill="#1a7f4b"/><rect x="493" y="635" width="358" height="1" fill="#1a7f4b"/><rect x="493" y="577" width="1" height="59" fill="#1a7f4b"/><rect x="850" y="577" width="1" height="59" fill="#1a7f4b"/><g transform="translate(508 597.5) scale(0.75) translate(0 0)"><path d="M20 12.5 12.5 20 3 10.5V3h7.5z"></path><circle cx="7.5" cy="7.5" r="1.2"></circle></g><text x="536" y="604" font-family="Montserrat" font-size="14" font-weight="700" fill="#1a7f4b" xml:space="preserve">KULLI applied</text><text x="536" y="620" font-family="Montserrat" font-size="11.5" font-weight="400" fill="#4a4a4a" xml:space="preserve">Referral code recognised</text><g transform="translate(819 598) scale(0.708) translate(0 0)"><path d="M20 6 9 17l-5-5"></path></g><rect x="493" y="652" width="358" height="102" rx="12" fill="#ffffff"/><rect x="493" y="652" width="358" height="1" fill="#e3e7ec"/><rect x="493" y="753" width="358" height="1" fill="#e3e7ec"/><rect x="493" y="652" width="1" height="102" fill="#e3e7ec"/><rect x="850" y="652" width="1" height="102" fill="#e3e7ec"/><text x="510" y="690" font-family="Montserrat" font-size="14" font-weight="400" fill="#4a4a4a" xml:space="preserve">Seat booking</text><text x="753.547" y="690" font-family="Montserrat" font-size="22" font-weight="800" fill="#03084c" xml:space="preserve">₹5,000</text><rect x="510" y="708" width="324" height="1" fill="#e3e7ec"/><text x="510" y="734" font-family="Montserrat" font-size="13" font-weight="400" fill="#4a4a4a" xml:space="preserve">Balance, payable at the centre</text><text x="780.422" y="734" font-family="Montserrat" font-size="13" font-weight="400" fill="#4a4a4a" xml:space="preserve">₹30,000</text><rect x="477" y="876" width="390" height="109" fill="#ffffff"/><rect x="477" y="876" width="390" height="1" fill="#e3e7ec"/><rect x="493" y="893" width="358" height="52" rx="8" fill="#ff9800"/><g transform="translate(579.859 910) scale(0.75) translate(0 0)"><rect x="4" y="11" width="16" height="10" rx="2"></rect><path d="M8 11V7a4 4 0 0 1 8 0v4"></path></g><text x="606.859" y="924.5" font-family="Montserrat" font-size="15" font-weight="700" fill="#ffffff" xml:space="preserve">Pay ₹5,000 securely</text><g transform="translate(531.234 955.5) scale(0.542) translate(0 0)"><rect x="4" y="11" width="16" height="10" rx="2"></rect><path d="M8 11V7a4 4 0 0 1 8 0v4"></path></g><text x="550.234" y="966" font-family="Montserrat" font-size="11.5" font-weight="400" fill="#8a94a1" xml:space="preserve">Secured by Razorpay · UPI, cards, net banking</text><text x="476" y="1011" font-family="Montserrat" font-size="11" font-weight="700" fill="#ff9800" letter-spacing="0.88" xml:space="preserve">₹5,000 DEPOSIT</text><text x="476" y="1034" font-family="Montserrat" font-size="13" font-weight="400" fill="#4a4a4a" xml:space="preserve">Far easier to say yes to. But ₹30,000 then moves at the </text><text x="476" y="1054" font-family="Montserrat" font-size="13" font-weight="400" fill="#4a4a4a" xml:space="preserve">centre, in cash or transfer, </text><text x="646.391" y="1054" font-family="Montserrat" font-size="13" font-weight="700" fill="#4a4a4a" xml:space="preserve">outside the online base the rev-</text><text x="476" y="1074" font-family="Montserrat" font-size="13" font-weight="700" fill="#4a4a4a" xml:space="preserve">share is measured on</text><text x="621.188" y="1074" font-family="Montserrat" font-size="13" font-weight="400" fill="#4a4a4a" xml:space="preserve">.</text><text x="904" y="237" font-family="Montserrat" font-size="11" font-weight="700" fill="#ff9800" letter-spacing="0.88" xml:space="preserve">THE COMMERCIAL ANSWER</text><text x="904" y="260" font-family="Montserrat" font-size="13.5" font-weight="400" fill="#4a4a4a" xml:space="preserve">Rev-share is online-payments-only. A deposit </text><text x="904" y="281" font-family="Montserrat" font-size="13.5" font-weight="400" fill="#4a4a4a" xml:space="preserve">model puts 86% of every fee outside the thing </text><text x="904" y="302" font-family="Montserrat" font-size="13.5" font-weight="400" fill="#4a4a4a" xml:space="preserve">we are paid on. Whatever is best for RCA's </text><text x="904" y="323" font-family="Montserrat" font-size="13.5" font-weight="400" fill="#4a4a4a" xml:space="preserve">conversion, this is the number to decide it with </text><text x="904" y="344" font-family="Montserrat" font-size="13.5" font-weight="400" fill="#4a4a4a" xml:space="preserve">— not a UX preference.</text><text x="904" y="379" font-family="Montserrat" font-size="11" font-weight="700" fill="#ff9800" letter-spacing="0.88" xml:space="preserve">IF IT IS A DEPOSIT</text><text x="904" y="402" font-family="Montserrat" font-size="13.5" font-weight="400" fill="#4a4a4a" xml:space="preserve">Then the balance should also be payable </text><text x="904" y="423" font-family="Montserrat" font-size="13.5" font-weight="400" fill="#4a4a4a" xml:space="preserve">online, from the same link, or the rev-share is </text><text x="904" y="444" font-family="Montserrat" font-size="13.5" font-weight="400" fill="#4a4a4a" xml:space="preserve">structurally capped at 14%.</text><text x="904" y="479" font-family="Montserrat" font-size="11" font-weight="700" fill="#ff9800" letter-spacing="0.88" xml:space="preserve">LAYOUT COST OF EITHER</text><text x="904" y="502" font-family="Montserrat" font-size="13.5" font-weight="400" fill="#4a4a4a" xml:space="preserve">One line. The balance row appears when the </text><text x="904" y="523" font-family="Montserrat" font-size="13.5" font-weight="400" fill="#4a4a4a" xml:space="preserve">amount is under the fee; nothing else moves.</text><text x="48" y="1124" font-family="Montserrat" font-size="11" font-weight="700" fill="#ff9800" letter-spacing="0.88" xml:space="preserve">QUESTION 2 — DO PRICES GO PUBLIC</text><rect x="48" y="1141" width="392" height="1" fill="#e3e7ec"/><rect x="48" y="1702" width="392" height="1" fill="#e3e7ec"/><rect x="48" y="1141" width="1" height="562" fill="#e3e7ec"/><rect x="439" y="1141" width="1" height="562" fill="#e3e7ec"/><rect x="49" y="1142" width="390" height="560" fill="#f8fafb"/><rect x="49" y="1142" width="390" height="560" fill="#f8fafb"/><rect x="49" y="1142" width="390" height="56" fill="#03084c"/><g transform="translate(65 1160) scale(0.833) translate(0 0)"><path d="m15 18-6-6 6-6"></path></g><text x="95" y="1175.5" font-family="Montserrat" font-size="15" font-weight="700" fill="#ffffff" xml:space="preserve">Java Full Stack</text><rect x="65" y="1218" width="358" height="313" rx="14" fill="#ffffff"/><rect x="65" y="1218" width="358" height="1" fill="#e3e7ec"/><rect x="65" y="1530" width="358" height="1" fill="#e3e7ec"/><rect x="65" y="1218" width="1" height="313" fill="#e3e7ec"/><rect x="422" y="1218" width="1" height="313" fill="#e3e7ec"/><text x="84" y="1248" font-family="Montserrat" font-size="11" font-weight="700" fill="#ff9800" letter-spacing="0.66" xml:space="preserve">NEXT BATCH</text><text x="84" y="1275" font-family="Montserrat" font-size="19" font-weight="700" fill="#03084c" xml:space="preserve">Java Full Stack</text><text x="84" y="1296" font-family="Montserrat" font-size="13" font-weight="400" fill="#4a4a4a" xml:space="preserve">For freshers &amp; working professionals</text><g transform="translate(84 1309.5) scale(0.625) translate(0 0)"><path d="M20 6 9 17l-5-5"></path></g><text x="108" y="1322" font-family="Montserrat" font-size="13.5" font-weight="400" fill="#4a4a4a" xml:space="preserve">4 months · offline, Bengaluru</text><g transform="translate(84 1332.5) scale(0.625) translate(0 0)"><path d="M20 6 9 17l-5-5"></path></g><text x="108" y="1345" font-family="Montserrat" font-size="13.5" font-weight="400" fill="#4a4a4a" xml:space="preserve">Starts Wed 24 May, 10:00 AM</text><g transform="translate(84 1355.5) scale(0.625) translate(0 0)"><path d="M20 6 9 17l-5-5"></path></g><text x="108" y="1368" font-family="Montserrat" font-size="13.5" font-weight="400" fill="#4a4a4a" xml:space="preserve">Trainer: Uday Pawar S</text><text x="84" y="1410" font-family="Montserrat" font-size="26" font-weight="800" fill="#03084c" xml:space="preserve">₹35,000</text><text x="202.484" y="1410" font-family="Montserrat" font-size="13" font-weight="400" fill="#4a4a4a" xml:space="preserve">course fee</text><rect x="84" y="1435" width="320" height="52" rx="8" fill="#ff9800"/><text x="185.109" y="1466.5" font-family="Montserrat" font-size="15" font-weight="700" fill="#ffffff" xml:space="preserve">Book your seat</text><text x="165.453" y="1509" font-family="Montserrat" font-size="12" font-weight="400" fill="#8a94a1" xml:space="preserve">Or talk to a counsellor first</text><text x="48" y="1728" font-family="Montserrat" font-size="11" font-weight="700" fill="#ff9800" letter-spacing="0.88" xml:space="preserve">PRICE SHOWN</text><text x="48" y="1751" font-family="Montserrat" font-size="13" font-weight="400" fill="#4a4a4a" xml:space="preserve">Filters out people who were never going to pay ₹35,000, so </text><text x="48" y="1771" font-family="Montserrat" font-size="13" font-weight="400" fill="#4a4a4a" xml:space="preserve">the counsellor's calls get better. Also lets a student pay </text><text x="48" y="1791" font-family="Montserrat" font-size="13" font-weight="400" fill="#4a4a4a" xml:space="preserve">without a call at all.</text><rect x="476" y="1141" width="392" height="1" fill="#e3e7ec"/><rect x="476" y="1702" width="392" height="1" fill="#e3e7ec"/><rect x="476" y="1141" width="1" height="562" fill="#e3e7ec"/><rect x="867" y="1141" width="1" height="562" fill="#e3e7ec"/><rect x="477" y="1142" width="390" height="560" fill="#f8fafb"/><rect x="477" y="1142" width="390" height="560" fill="#f8fafb"/><rect x="477" y="1142" width="390" height="56" fill="#03084c"/><g transform="translate(493 1160) scale(0.833) translate(0 0)"><path d="m15 18-6-6 6-6"></path></g><text x="523" y="1175.5" font-family="Montserrat" font-size="15" font-weight="700" fill="#ffffff" xml:space="preserve">Java Full Stack</text><rect x="493" y="1218" width="358" height="299" rx="14" fill="#ffffff"/><rect x="493" y="1218" width="358" height="1" fill="#e3e7ec"/><rect x="493" y="1516" width="358" height="1" fill="#e3e7ec"/><rect x="493" y="1218" width="1" height="299" fill="#e3e7ec"/><rect x="850" y="1218" width="1" height="299" fill="#e3e7ec"/><text x="512" y="1248" font-family="Montserrat" font-size="11" font-weight="700" fill="#ff9800" letter-spacing="0.66" xml:space="preserve">NEXT BATCH</text><text x="512" y="1275" font-family="Montserrat" font-size="19" font-weight="700" fill="#03084c" xml:space="preserve">Java Full Stack</text><text x="512" y="1296" font-family="Montserrat" font-size="13" font-weight="400" fill="#4a4a4a" xml:space="preserve">For freshers &amp; working professionals</text><g transform="translate(512 1309.5) scale(0.625) translate(0 0)"><path d="M20 6 9 17l-5-5"></path></g><text x="536" y="1322" font-family="Montserrat" font-size="13.5" font-weight="400" fill="#4a4a4a" xml:space="preserve">4 months · offline, Bengaluru</text><g transform="translate(512 1332.5) scale(0.625) translate(0 0)"><path d="M20 6 9 17l-5-5"></path></g><text x="536" y="1345" font-family="Montserrat" font-size="13.5" font-weight="400" fill="#4a4a4a" xml:space="preserve">Starts Wed 24 May, 10:00 AM</text><g transform="translate(512 1355.5) scale(0.625) translate(0 0)"><path d="M20 6 9 17l-5-5"></path></g><text x="536" y="1368" font-family="Montserrat" font-size="13.5" font-weight="400" fill="#4a4a4a" xml:space="preserve">Trainer: Uday Pawar S</text><text x="512" y="1399" font-family="Montserrat" font-size="14" font-weight="600" fill="#146389" xml:space="preserve">Fee shared on the counselling call</text><rect x="512" y="1421" width="320" height="52" rx="8" fill="#ff9800"/><text x="613.109" y="1452.5" font-family="Montserrat" font-size="15" font-weight="700" fill="#ffffff" xml:space="preserve">Book your seat</text><text x="593.453" y="1495" font-family="Montserrat" font-size="12" font-weight="400" fill="#8a94a1" xml:space="preserve">Or talk to a counsellor first</text><text x="476" y="1728" font-family="Montserrat" font-size="11" font-weight="700" fill="#ff9800" letter-spacing="0.88" xml:space="preserve">PRICE WITHHELD</text><text x="476" y="1751" font-family="Montserrat" font-size="13" font-weight="400" fill="#4a4a4a" xml:space="preserve">Protects the counselling motion that currently converts, </text><text x="476" y="1771" font-family="Montserrat" font-size="13" font-weight="400" fill="#4a4a4a" xml:space="preserve">and keeps the fee negotiable. Costs you the self-serve path </text><text x="476" y="1791" font-family="Montserrat" font-size="13" font-weight="400" fill="#4a4a4a" xml:space="preserve">entirely — nobody pays a price they have not seen.</text><text x="904" y="1154" font-family="Montserrat" font-size="11" font-weight="700" fill="#ff9800" letter-spacing="0.88" xml:space="preserve">THEY ARE THE SAME COMPONENT</text><text x="904" y="1177" font-family="Montserrat" font-size="13.5" font-weight="400" fill="#4a4a4a" xml:space="preserve">One boolean. The button, batch details and </text><text x="904" y="1198" font-family="Montserrat" font-size="13.5" font-weight="400" fill="#4a4a4a" xml:space="preserve">layout are identical either way.</text><text x="904" y="1233" font-family="Montserrat" font-size="11" font-weight="700" fill="#ff9800" letter-spacing="0.88" xml:space="preserve">A MIDDLE OPTION</text><text x="904" y="1256" font-family="Montserrat" font-size="13.5" font-weight="400" fill="#4a4a4a" xml:space="preserve">Show the price only on the enrol page reached </text><text x="904" y="1277" font-family="Montserrat" font-size="13.5" font-weight="400" fill="#4a4a4a" xml:space="preserve">from the call, not on the public course card. </text><text x="904" y="1298" font-family="Montserrat" font-size="13.5" font-weight="400" fill="#4a4a4a" xml:space="preserve">Self-serve stays off, attribution still works, and </text><text x="904" y="1319" font-family="Montserrat" font-size="13.5" font-weight="400" fill="#4a4a4a" xml:space="preserve">the fee stays private.</text></svg>